<?xml version="1.0" encoding="UTF-8"?>
<svg width="14px" height="11px" viewBox="0 0 14 11" version="1.1" xmlns="http://www.w3.org/2000/svg" xmlns:xlink="http://www.w3.org/1999/xlink">
    <!-- Generator: Sketch 52.1 (67048) - http://www.bohemiancoding.com/sketch -->
    <title>check</title>
    <desc>Created with Sketch.</desc>
    <g id="Page-1" stroke="none" stroke-width="1" fill="none" fill-rule="evenodd">
        <g id="check" fill="#000000">
            <path d="M13.9909794,2.11082474 C13.9909794,2.33634021 13.9007732,2.56185567 13.7384021,2.7242268 L5.9806701,10.4819588 C5.81829897,10.6443299 5.59278351,10.7345361 5.36726804,10.7345361 C5.14175258,10.7345361 4.91623711,10.6443299 4.75386598,10.4819588 L0.261597938,5.98969072 C0.0992268041,5.82731959 0.00902061856,5.60180412 0.00902061856,5.37628866 C0.00902061856,5.1507732 0.0992268041,4.92525773 0.261597938,4.7628866 L1.48840206,3.53608247 C1.6507732,3.37371134 1.87628866,3.28350515 2.10180412,3.28350515 C2.32731959,3.28350515 2.55283505,3.37371134 2.71520619,3.53608247 L5.36726804,6.19716495 L11.2847938,0.270618557 C11.4471649,0.108247423 11.6726804,0.0180412371 11.8981959,0.0180412371 C12.1237113,0.0180412371 12.3492268,0.108247423 12.5115979,0.270618557 L13.7384021,1.49742268 C13.9007732,1.65979381 13.9909794,1.88530928 13.9909794,2.11082474 Z" id="Path"></path>
        </g>
    </g>
</svg>