<?xml version="1.0" encoding="UTF-8"?>
<svg width="17px" height="17px" viewBox="0 0 17 17" version="1.1" xmlns="http://www.w3.org/2000/svg" xmlns:xlink="http://www.w3.org/1999/xlink">
    <!-- Generator: Sketch 52.1 (67048) - http://www.bohemiancoding.com/sketch -->
    <title>search</title>
    <desc>Created with Sketch.</desc>
    <g id="Page-1" stroke="none" stroke-width="1" fill="none" fill-rule="evenodd">
        <g id="search" fill="#000000" fill-rule="nonzero">
            <path d="M11.7692308,7.19230769 C11.7692308,4.66887019 9.71574519,2.61538462 7.19230769,2.61538462 C4.66887019,2.61538462 2.61538462,4.66887019 2.61538462,7.19230769 C2.61538462,9.71574519 4.66887019,11.7692308 7.19230769,11.7692308 C9.71574519,11.7692308 11.7692308,9.71574519 11.7692308,7.19230769 Z M17,15.6923077 C17,16.4074519 16.4074519,17 15.6923077,17 C15.3449519,17 15.0078125,16.8569712 14.7728365,16.6117788 L11.2686298,13.1177885 C10.0733173,13.9453125 8.64302885,14.3846154 7.19230769,14.3846154 C3.21814904,14.3846154 0,11.1664663 0,7.19230769 C0,3.21814904 3.21814904,0 7.19230769,0 C11.1664663,0 14.3846154,3.21814904 14.3846154,7.19230769 C14.3846154,8.64302885 13.9453125,10.0733173 13.1177885,11.2686298 L16.6219952,14.7728365 C16.8569712,15.0078125 17,15.3449519 17,15.6923077 Z" id="Shape"></path>
        </g>
    </g>
</svg>